<svg xmlns="http://www.w3.org/2000/svg" width="92" height="24" viewBox="0 0 92 24" fill="none">
<g transform="translate(6.0000 17.3171) scale(0.024390 -0.024390) translate(38.0000 0.0000)">
<path d="M595 31 503 710H463L119 138C87 85 62 53 43 42C28 33 3 30 -31 31L-38 0H186L193 31C154 31 134 34 131 41C130 44 129 47 129 52C129 71 141 99 165 138L221 229H470L497 31H410L403 0H663L670 31ZM244 266 422 578 465 266Z" fill="black" />
<path d="M451 342C451 422 432 462 395 462C354 462 309 441 260 398C216 361 183 321 161 279L159 281L180 390C183 407 185 420 185 430C185 451 178 462 163 462C143 462 100 438 35 390L8 370L15 351L42 368C70 385 86 394 91 394C103 394 109 387 109 373C109 362 104 326 93 264L48 2C35 -78 16 -168 -7 -268L0 -274C18 -268 42 -262 71 -257L112 -3C142 -12 161 -17 170 -17C187 -17 210 -10 238 4C303 36 350 73 378 115C397 144 414 181 429 226C444 271 451 310 451 342ZM381 340C381 280 367 217 338 151C302 70 257 29 204 29C171 29 143 36 121 51L139 154C148 201 166 246 193 289C222 335 256 369 295 392C310 401 328 405 348 405C370 405 381 383 381 340Z" fill="black" transform="translate(682.0000 0)" />
<path d="M404 100C379 79 351 54 331 54C317 54 313 65 318 87L407 455L397 464L365 446C334 459 308 465 287 465C262 465 241 461 222 453C203 445 176 428 139 401C112 382 85 333 59 255C34 180 21 118 21 68C21 13 32 -14 54 -14C70 -14 95 -1 130 24C175 57 223 112 275 189L278 188L252 72C248 54 246 37 246 20C246 -1 254 -12 271 -12C292 -12 339 18 411 79ZM326 399C308 301 278 224 236 168C179 92 137 54 109 54C97 54 91 69 91 100C91 158 108 233 143 325C156 358 168 381 179 393C194 409 216 417 245 417C263 417 290 411 326 399Z" fill="black" transform="translate(1167.0000 0)" />
<path d="M372 462C364 466 358 468 353 468C332 468 310 456 288 433C280 424 265 403 242 371C205 318 181 279 171 256L169 258C177 305 187 351 198 396C202 412 204 425 204 436C204 457 196 468 180 468C159 468 117 444 52 396L25 376L32 357L59 374C86 391 103 400 109 400C120 400 126 393 126 379C126 369 124 349 119 319L117 307C97 186 73 83 46 -2L55 -9C70 -4 92 1 120 6L145 122C162 199 189 261 228 309C262 351 288 372 307 372C323 372 335 366 343 354H357C360 384 365 420 372 462Z" fill="black" transform="translate(1597.0000 0)" />
<path d="M410 315C410 360 400 395 380 421C357 450 324 465 281 465C252 465 219 456 183 437C80 384 27 275 27 142C27 38 70 -14 155 -14C216 -14 287 24 327 75C352 106 372 144 387 188C402 232 410 274 410 315ZM336 304C336 261 330 217 318 172C305 121 286 82 263 55C244 34 221 23 192 23C131 23 101 64 101 147C101 190 108 237 122 288C139 349 160 390 187 411C201 422 221 428 246 428C306 428 336 387 336 304Z" fill="black" transform="translate(1974.0000 0)" />
<path d="M500 96 475 79C446 60 426 50 415 50C407 50 403 57 403 70C403 77 405 90 410 109L469 357C476 388 480 412 480 430C480 453 469 464 448 464C411 464 364 440 305 392C267 361 224 312 176 243H172L207 392C211 408 213 421 213 432C213 453 205 464 189 464C168 464 126 440 61 392L34 372L41 353L68 370C97 389 114 398 118 398C129 398 135 390 135 375C135 351 130 315 120 266C97 155 76 65 56 -2L62 -13C90 -5 113 1 130 4C142 89 160 156 185 206C220 278 264 332 316 368C345 388 368 398 383 398C394 398 399 390 399 375C399 358 395 335 388 305L338 100C329 65 325 40 325 26C325 0 335 -13 355 -13C366 -13 382 -7 404 6C430 21 465 45 510 78Z" fill="black" transform="translate(2404.0000 0)" />
</g></svg>